<?xml version="1.0" encoding="UTF-8" standalone="no"?>
<!DOCTYPE svg PUBLIC "-//W3C//DTD SVG 1.1//EN"
 "http://www.w3.org/Graphics/SVG/1.1/DTD/svg11.dtd">
<!-- Generated by graphviz version 2.44.1 (20200629.0846)
 -->
<!-- Title: snakemake_dag Pages: 1 -->
<svg width="305pt" height="620pt"
 viewBox="0.00 0.00 305.31 620.00" xmlns="http://www.w3.org/2000/svg" xmlns:xlink="http://www.w3.org/1999/xlink">
<g id="graph0" class="graph" transform="scale(1 1) rotate(0) translate(4 616)">
<title>snakemake_dag</title>
<polygon fill="white" stroke="transparent" points="-4,4 -4,-616 301.31,-616 301.31,4 -4,4"/>
<!-- 0 -->
<g id="node1" class="node">
<title>0</title>
<path fill="none" stroke="#56d88a" stroke-width="2" d="M165.31,-36C165.31,-36 127.31,-36 127.31,-36 121.31,-36 115.31,-30 115.31,-24 115.31,-24 115.31,-12 115.31,-12 115.31,-6 121.31,0 127.31,0 127.31,0 165.31,0 165.31,0 171.31,0 177.31,-6 177.31,-12 177.31,-12 177.31,-24 177.31,-24 177.31,-30 171.31,-36 165.31,-36"/>
<text text-anchor="middle" x="146.31" y="-15.5" font-family="sans" font-size="10.00">assurance</text>
</g>
<!-- 1 -->
<g id="node2" class="node">
<title>1</title>
<path fill="none" stroke="#56d86b" stroke-width="2" d="M285.31,-252C285.31,-252 255.31,-252 255.31,-252 249.31,-252 243.31,-246 243.31,-240 243.31,-240 243.31,-228 243.31,-228 243.31,-222 249.31,-216 255.31,-216 255.31,-216 285.31,-216 285.31,-216 291.31,-216 297.31,-222 297.31,-228 297.31,-228 297.31,-240 297.31,-240 297.31,-246 291.31,-252 285.31,-252"/>
<text text-anchor="middle" x="270.31" y="-231.5" font-family="sans" font-size="10.00">pangolin</text>
</g>
<!-- 1&#45;&gt;0 -->
<g id="edge1" class="edge">
<title>1&#45;&gt;0</title>
<path fill="none" stroke="grey" stroke-width="2" d="M266.95,-215.63C260.3,-184.5 243.15,-118.2 210.31,-72 202.32,-60.76 191.37,-50.52 180.79,-42.1"/>
<polygon fill="grey" stroke="grey" stroke-width="2" points="182.9,-39.31 172.82,-36.03 178.65,-44.88 182.9,-39.31"/>
</g>
<!-- 2 -->
<g id="node3" class="node">
<title>2</title>
<path fill="none" stroke="#56d8d0" stroke-width="2" d="M189.31,-108C189.31,-108 159.31,-108 159.31,-108 153.31,-108 147.31,-102 147.31,-96 147.31,-96 147.31,-84 147.31,-84 147.31,-78 153.31,-72 159.31,-72 159.31,-72 189.31,-72 189.31,-72 195.31,-72 201.31,-78 201.31,-84 201.31,-84 201.31,-96 201.31,-96 201.31,-102 195.31,-108 189.31,-108"/>
<text text-anchor="middle" x="174.31" y="-87.5" font-family="sans" font-size="10.00">root2tip</text>
</g>
<!-- 2&#45;&gt;0 -->
<g id="edge2" class="edge">
<title>2&#45;&gt;0</title>
<path fill="none" stroke="grey" stroke-width="2" d="M167.39,-71.7C164.24,-63.81 160.44,-54.3 156.93,-45.55"/>
<polygon fill="grey" stroke="grey" stroke-width="2" points="160.12,-44.09 153.16,-36.1 153.62,-46.69 160.12,-44.09"/>
</g>
<!-- 3 -->
<g id="node4" class="node">
<title>3</title>
<path fill="none" stroke="#56c1d8" stroke-width="2" d="M93.31,-540C93.31,-540 63.31,-540 63.31,-540 57.31,-540 51.31,-534 51.31,-528 51.31,-528 51.31,-516 51.31,-516 51.31,-510 57.31,-504 63.31,-504 63.31,-504 93.31,-504 93.31,-504 99.31,-504 105.31,-510 105.31,-516 105.31,-516 105.31,-528 105.31,-528 105.31,-534 99.31,-540 93.31,-540"/>
<text text-anchor="middle" x="78.31" y="-519.5" font-family="sans" font-size="10.00">lineages</text>
</g>
<!-- 3&#45;&gt;0 -->
<g id="edge3" class="edge">
<title>3&#45;&gt;0</title>
<path fill="none" stroke="grey" stroke-width="2" d="M52.76,-503.89C40.85,-494.63 27.52,-482.18 19.31,-468 -0.94,-432.99 0.31,-419.45 0.31,-379 0.31,-379 0.31,-379 0.31,-161 0.31,-101.87 62.62,-59.4 105.82,-37.05"/>
<polygon fill="grey" stroke="grey" stroke-width="2" points="107.62,-40.07 114.99,-32.46 104.49,-33.81 107.62,-40.07"/>
</g>
<!-- 4 -->
<g id="node5" class="node">
<title>4</title>
<path fill="none" stroke="#68d856" stroke-width="2" d="M192.81,-468C192.81,-468 157.81,-468 157.81,-468 151.81,-468 145.81,-462 145.81,-456 145.81,-456 145.81,-444 145.81,-444 145.81,-438 151.81,-432 157.81,-432 157.81,-432 192.81,-432 192.81,-432 198.81,-432 204.81,-438 204.81,-444 204.81,-444 204.81,-456 204.81,-456 204.81,-462 198.81,-468 192.81,-468"/>
<text text-anchor="middle" x="175.31" y="-447.5" font-family="sans" font-size="10.00">multifasta</text>
</g>
<!-- 3&#45;&gt;4 -->
<g id="edge10" class="edge">
<title>3&#45;&gt;4</title>
<path fill="none" stroke="grey" stroke-width="2" d="M102.29,-503.7C114.63,-494.8 129.83,-483.82 143.17,-474.2"/>
<polygon fill="grey" stroke="grey" stroke-width="2" points="145.55,-476.79 151.61,-468.1 141.46,-471.12 145.55,-476.79"/>
</g>
<!-- 9 -->
<g id="node10" class="node">
<title>9</title>
<path fill="none" stroke="#56d8a9" stroke-width="2" d="M115.81,-468C115.81,-468 40.81,-468 40.81,-468 34.81,-468 28.81,-462 28.81,-456 28.81,-456 28.81,-444 28.81,-444 28.81,-438 34.81,-432 40.81,-432 40.81,-432 115.81,-432 115.81,-432 121.81,-432 127.81,-438 127.81,-444 127.81,-444 127.81,-456 127.81,-456 127.81,-462 121.81,-468 115.81,-468"/>
<text text-anchor="middle" x="78.31" y="-447.5" font-family="sans" font-size="10.00">combine_metadata</text>
</g>
<!-- 3&#45;&gt;9 -->
<g id="edge18" class="edge">
<title>3&#45;&gt;9</title>
<path fill="none" stroke="grey" stroke-width="2" d="M78.31,-503.7C78.31,-495.98 78.31,-486.71 78.31,-478.11"/>
<polygon fill="grey" stroke="grey" stroke-width="2" points="81.81,-478.1 78.31,-468.1 74.81,-478.1 81.81,-478.1"/>
</g>
<!-- 4&#45;&gt;0 -->
<g id="edge4" class="edge">
<title>4&#45;&gt;0</title>
<path fill="none" stroke="grey" stroke-width="2" d="M161.67,-431.75C154.39,-421.79 145.82,-408.75 140.31,-396 124.2,-358.69 119.31,-347.64 119.31,-307 119.31,-307 119.31,-307 119.31,-161 119.31,-120.5 130.04,-74.63 137.98,-46.26"/>
<polygon fill="grey" stroke="grey" stroke-width="2" points="141.44,-46.87 140.85,-36.29 134.72,-44.93 141.44,-46.87"/>
</g>
<!-- 11 -->
<g id="node12" class="node">
<title>11</title>
<path fill="none" stroke="#d89c56" stroke-width="2" d="M191.31,-396C191.31,-396 161.31,-396 161.31,-396 155.31,-396 149.31,-390 149.31,-384 149.31,-384 149.31,-372 149.31,-372 149.31,-366 155.31,-360 161.31,-360 161.31,-360 191.31,-360 191.31,-360 197.31,-360 203.31,-366 203.31,-372 203.31,-372 203.31,-384 203.31,-384 203.31,-390 197.31,-396 191.31,-396"/>
<text text-anchor="middle" x="176.31" y="-375.5" font-family="sans" font-size="10.00">align</text>
</g>
<!-- 4&#45;&gt;11 -->
<g id="edge20" class="edge">
<title>4&#45;&gt;11</title>
<path fill="none" stroke="grey" stroke-width="2" d="M175.56,-431.7C175.67,-423.98 175.8,-414.71 175.93,-406.11"/>
<polygon fill="grey" stroke="grey" stroke-width="2" points="179.43,-406.15 176.07,-396.1 172.43,-406.05 179.43,-406.15"/>
</g>
<!-- 5 -->
<g id="node6" class="node">
<title>5</title>
<path fill="none" stroke="#afd856" stroke-width="2" d="M223.81,-324C223.81,-324 188.81,-324 188.81,-324 182.81,-324 176.81,-318 176.81,-312 176.81,-312 176.81,-300 176.81,-300 176.81,-294 182.81,-288 188.81,-288 188.81,-288 223.81,-288 223.81,-288 229.81,-288 235.81,-294 235.81,-300 235.81,-300 235.81,-312 235.81,-312 235.81,-318 229.81,-324 223.81,-324"/>
<text text-anchor="middle" x="206.31" y="-303.5" font-family="sans" font-size="10.00">mutations</text>
</g>
<!-- 5&#45;&gt;1 -->
<g id="edge5" class="edge">
<title>5&#45;&gt;1</title>
<path fill="none" stroke="grey" stroke-width="2" d="M222.14,-287.7C229.89,-279.22 239.35,-268.86 247.84,-259.58"/>
<polygon fill="grey" stroke="grey" stroke-width="2" points="250.51,-261.85 254.68,-252.1 245.35,-257.12 250.51,-261.85"/>
</g>
<!-- 8 -->
<g id="node9" class="node">
<title>8</title>
<path fill="none" stroke="#d87556" stroke-width="2" d="M213.31,-252C213.31,-252 183.31,-252 183.31,-252 177.31,-252 171.31,-246 171.31,-240 171.31,-240 171.31,-228 171.31,-228 171.31,-222 177.31,-216 183.31,-216 183.31,-216 213.31,-216 213.31,-216 219.31,-216 225.31,-222 225.31,-228 225.31,-228 225.31,-240 225.31,-240 225.31,-246 219.31,-252 213.31,-252"/>
<text text-anchor="middle" x="198.31" y="-231.5" font-family="sans" font-size="10.00">mask</text>
</g>
<!-- 5&#45;&gt;8 -->
<g id="edge17" class="edge">
<title>5&#45;&gt;8</title>
<path fill="none" stroke="grey" stroke-width="2" d="M204.34,-287.7C203.46,-279.98 202.4,-270.71 201.41,-262.11"/>
<polygon fill="grey" stroke="grey" stroke-width="2" points="204.88,-261.64 200.27,-252.1 197.93,-262.44 204.88,-261.64"/>
</g>
<!-- 6 -->
<g id="node7" class="node">
<title>6</title>
<path fill="none" stroke="#567bd8" stroke-width="2" d="M268.31,-540C268.31,-540 198.31,-540 198.31,-540 192.31,-540 186.31,-534 186.31,-528 186.31,-528 186.31,-516 186.31,-516 186.31,-510 192.31,-504 198.31,-504 198.31,-504 268.31,-504 268.31,-504 274.31,-504 280.31,-510 280.31,-516 280.31,-516 280.31,-528 280.31,-528 280.31,-534 274.31,-540 268.31,-540"/>
<text text-anchor="middle" x="233.31" y="-519.5" font-family="sans" font-size="10.00">inspect_metadata</text>
</g>
<!-- 6&#45;&gt;1 -->
<g id="edge6" class="edge">
<title>6&#45;&gt;1</title>
<path fill="none" stroke="grey" stroke-width="2" d="M235.52,-503.97C241.7,-456.19 259.24,-320.62 266.79,-262.27"/>
<polygon fill="grey" stroke="grey" stroke-width="2" points="270.26,-262.67 268.08,-252.31 263.32,-261.77 270.26,-262.67"/>
</g>
<!-- 6&#45;&gt;4 -->
<g id="edge12" class="edge">
<title>6&#45;&gt;4</title>
<path fill="none" stroke="grey" stroke-width="2" d="M218.98,-503.7C212.02,-495.3 203.54,-485.07 195.91,-475.86"/>
<polygon fill="grey" stroke="grey" stroke-width="2" points="198.56,-473.57 189.49,-468.1 193.17,-478.04 198.56,-473.57"/>
</g>
<!-- 6&#45;&gt;5 -->
<g id="edge14" class="edge">
<title>6&#45;&gt;5</title>
<path fill="none" stroke="grey" stroke-width="2" d="M231.15,-503.85C226.48,-466.83 215.42,-379.18 209.77,-334.39"/>
<polygon fill="grey" stroke="grey" stroke-width="2" points="213.21,-333.72 208.49,-324.23 206.27,-334.59 213.21,-333.72"/>
</g>
<!-- 6&#45;&gt;9 -->
<g id="edge19" class="edge">
<title>6&#45;&gt;9</title>
<path fill="none" stroke="grey" stroke-width="2" d="M195.4,-503.88C174.3,-494.35 147.86,-482.41 125.44,-472.28"/>
<polygon fill="grey" stroke="grey" stroke-width="2" points="126.66,-468.99 116.11,-468.07 123.78,-475.37 126.66,-468.99"/>
</g>
<!-- 7 -->
<g id="node8" class="node">
<title>7</title>
<path fill="none" stroke="#d85656" stroke-width="2" d="M189.31,-180C189.31,-180 159.31,-180 159.31,-180 153.31,-180 147.31,-174 147.31,-168 147.31,-168 147.31,-156 147.31,-156 147.31,-150 153.31,-144 159.31,-144 159.31,-144 189.31,-144 189.31,-144 195.31,-144 201.31,-150 201.31,-156 201.31,-156 201.31,-168 201.31,-168 201.31,-174 195.31,-180 189.31,-180"/>
<text text-anchor="middle" x="174.31" y="-159.5" font-family="sans" font-size="10.00">tree</text>
</g>
<!-- 7&#45;&gt;2 -->
<g id="edge7" class="edge">
<title>7&#45;&gt;2</title>
<path fill="none" stroke="grey" stroke-width="2" d="M174.31,-143.7C174.31,-135.98 174.31,-126.71 174.31,-118.11"/>
<polygon fill="grey" stroke="grey" stroke-width="2" points="177.81,-118.1 174.31,-108.1 170.81,-118.1 177.81,-118.1"/>
</g>
<!-- 8&#45;&gt;2 -->
<g id="edge8" class="edge">
<title>8&#45;&gt;2</title>
<path fill="none" stroke="grey" stroke-width="2" d="M204.87,-215.91C210.88,-197.73 217.78,-168.29 210.31,-144 207.31,-134.22 201.81,-124.62 196,-116.33"/>
<polygon fill="grey" stroke="grey" stroke-width="2" points="198.72,-114.13 189.92,-108.23 193.12,-118.33 198.72,-114.13"/>
</g>
<!-- 8&#45;&gt;7 -->
<g id="edge16" class="edge">
<title>8&#45;&gt;7</title>
<path fill="none" stroke="grey" stroke-width="2" d="M192.38,-215.7C189.71,-207.9 186.49,-198.51 183.51,-189.83"/>
<polygon fill="grey" stroke="grey" stroke-width="2" points="186.73,-188.43 180.18,-180.1 180.11,-190.7 186.73,-188.43"/>
</g>
<!-- 9&#45;&gt;2 -->
<g id="edge9" class="edge">
<title>9&#45;&gt;2</title>
<path fill="none" stroke="grey" stroke-width="2" d="M78.51,-431.95C78.8,-405.29 79.31,-352.12 79.31,-307 79.31,-307 79.31,-307 79.31,-233 79.31,-185.01 117.26,-140.96 145.19,-115.04"/>
<polygon fill="grey" stroke="grey" stroke-width="2" points="147.67,-117.52 152.76,-108.22 142.98,-112.31 147.67,-117.52"/>
</g>
<!-- 10 -->
<g id="node11" class="node">
<title>10</title>
<path fill="none" stroke="#569ad8" stroke-width="2" d="M223.31,-612C223.31,-612 167.31,-612 167.31,-612 161.31,-612 155.31,-606 155.31,-600 155.31,-600 155.31,-588 155.31,-588 155.31,-582 161.31,-576 167.31,-576 167.31,-576 223.31,-576 223.31,-576 229.31,-576 235.31,-582 235.31,-588 235.31,-588 235.31,-600 235.31,-600 235.31,-606 229.31,-612 223.31,-612"/>
<text text-anchor="middle" x="195.31" y="-591.5" font-family="sans" font-size="10.00">filter_coverage</text>
</g>
<!-- 10&#45;&gt;4 -->
<g id="edge11" class="edge">
<title>10&#45;&gt;4</title>
<path fill="none" stroke="grey" stroke-width="2" d="M187.94,-575.69C183.98,-565.5 179.48,-552.25 177.31,-540 173.71,-519.58 173.33,-496.12 173.79,-478.42"/>
<polygon fill="grey" stroke="grey" stroke-width="2" points="177.3,-478.34 174.16,-468.21 170.3,-478.08 177.3,-478.34"/>
</g>
<!-- 10&#45;&gt;6 -->
<g id="edge15" class="edge">
<title>10&#45;&gt;6</title>
<path fill="none" stroke="grey" stroke-width="2" d="M204.71,-575.7C209.08,-567.64 214.37,-557.89 219.21,-548.98"/>
<polygon fill="grey" stroke="grey" stroke-width="2" points="222.33,-550.56 224.03,-540.1 216.18,-547.22 222.33,-550.56"/>
</g>
<!-- 11&#45;&gt;5 -->
<g id="edge13" class="edge">
<title>11&#45;&gt;5</title>
<path fill="none" stroke="grey" stroke-width="2" d="M183.73,-359.7C187.11,-351.81 191.18,-342.3 194.94,-333.55"/>
<polygon fill="grey" stroke="grey" stroke-width="2" points="198.26,-334.67 198.98,-324.1 191.83,-331.92 198.26,-334.67"/>
</g>
</g>
</svg>
