<?xml version="1.0" encoding="UTF-8" standalone="no"?>
<!DOCTYPE svg PUBLIC "-//W3C//DTD SVG 1.1//EN"
 "http://www.w3.org/Graphics/SVG/1.1/DTD/svg11.dtd">
<!-- Generated by graphviz version 2.44.1 (20200629.0846)
 -->
<!-- Title: snakemake_dag Pages: 1 -->
<svg width="328pt" height="620pt"
 viewBox="0.00 0.00 328.00 620.00" xmlns="http://www.w3.org/2000/svg" xmlns:xlink="http://www.w3.org/1999/xlink">
<g id="graph0" class="graph" transform="scale(1 1) rotate(0) translate(4 616)">
<title>snakemake_dag</title>
<polygon fill="white" stroke="transparent" points="-4,4 -4,-616 324,-616 324,4 -4,4"/>
<!-- 0 -->
<g id="node1" class="node">
<title>0</title>
<path fill="none" stroke="#569ad8" stroke-width="2" d="M243,-36C243,-36 205,-36 205,-36 199,-36 193,-30 193,-24 193,-24 193,-12 193,-12 193,-6 199,0 205,0 205,0 243,0 243,0 249,0 255,-6 255,-12 255,-12 255,-24 255,-24 255,-30 249,-36 243,-36"/>
<text text-anchor="middle" x="224" y="-15.5" font-family="sans" font-size="10.00">assurance</text>
</g>
<!-- 1 -->
<g id="node2" class="node">
<title>1</title>
<path fill="none" stroke="#97d856" stroke-width="2" d="M42,-252C42,-252 12,-252 12,-252 6,-252 0,-246 0,-240 0,-240 0,-228 0,-228 0,-222 6,-216 12,-216 12,-216 42,-216 42,-216 48,-216 54,-222 54,-228 54,-228 54,-240 54,-240 54,-246 48,-252 42,-252"/>
<text text-anchor="middle" x="27" y="-231.5" font-family="sans" font-size="10.00">pangolin</text>
</g>
<!-- 1&#45;&gt;0 -->
<g id="edge1" class="edge">
<title>1&#45;&gt;0</title>
<path fill="none" stroke="grey" stroke-width="2" d="M31.28,-215.63C40.07,-183.34 63.02,-113.55 106,-72 127.36,-51.36 158.15,-37.89 182.92,-29.71"/>
<polygon fill="grey" stroke="grey" stroke-width="2" points="184.28,-32.95 192.78,-26.62 182.19,-26.27 184.28,-32.95"/>
</g>
<!-- 2 -->
<g id="node3" class="node">
<title>2</title>
<path fill="none" stroke="#d85656" stroke-width="2" d="M157,-108C157,-108 127,-108 127,-108 121,-108 115,-102 115,-96 115,-96 115,-84 115,-84 115,-78 121,-72 127,-72 127,-72 157,-72 157,-72 163,-72 169,-78 169,-84 169,-84 169,-96 169,-96 169,-102 163,-108 157,-108"/>
<text text-anchor="middle" x="142" y="-87.5" font-family="sans" font-size="10.00">root2tip</text>
</g>
<!-- 2&#45;&gt;0 -->
<g id="edge2" class="edge">
<title>2&#45;&gt;0</title>
<path fill="none" stroke="grey" stroke-width="2" d="M162.27,-71.7C172.5,-62.97 185.06,-52.24 196.18,-42.75"/>
<polygon fill="grey" stroke="grey" stroke-width="2" points="198.63,-45.26 203.96,-36.1 194.09,-39.94 198.63,-45.26"/>
</g>
<!-- 3 -->
<g id="node4" class="node">
<title>3</title>
<path fill="none" stroke="#d8b456" stroke-width="2" d="M302.5,-612C302.5,-612 255.5,-612 255.5,-612 249.5,-612 243.5,-606 243.5,-600 243.5,-600 243.5,-588 243.5,-588 243.5,-582 249.5,-576 255.5,-576 255.5,-576 302.5,-576 302.5,-576 308.5,-576 314.5,-582 314.5,-588 314.5,-588 314.5,-600 314.5,-600 314.5,-606 308.5,-612 302.5,-612"/>
<text text-anchor="middle" x="279" y="-591.5" font-family="sans" font-size="10.00">lineages_rep</text>
</g>
<!-- 3&#45;&gt;0 -->
<g id="edge3" class="edge">
<title>3&#45;&gt;0</title>
<path fill="none" stroke="grey" stroke-width="2" d="M287.3,-575.97C299.28,-549.77 320,-497.7 320,-451 320,-451 320,-451 320,-161 320,-112.85 281.66,-68.85 253.44,-42.98"/>
<polygon fill="grey" stroke="grey" stroke-width="2" points="255.58,-40.2 245.78,-36.17 250.93,-45.43 255.58,-40.2"/>
</g>
<!-- 10 -->
<g id="node11" class="node">
<title>10</title>
<path fill="none" stroke="#d6d856" stroke-width="2" d="M279.5,-540C279.5,-540 228.5,-540 228.5,-540 222.5,-540 216.5,-534 216.5,-528 216.5,-528 216.5,-516 216.5,-516 216.5,-510 222.5,-504 228.5,-504 228.5,-504 279.5,-504 279.5,-504 285.5,-504 291.5,-510 291.5,-516 291.5,-516 291.5,-528 291.5,-528 291.5,-534 285.5,-540 279.5,-540"/>
<text text-anchor="middle" x="254" y="-519.5" font-family="sans" font-size="10.00">base_dataset</text>
</g>
<!-- 3&#45;&gt;10 -->
<g id="edge20" class="edge">
<title>3&#45;&gt;10</title>
<path fill="none" stroke="grey" stroke-width="2" d="M272.82,-575.7C270,-567.81 266.61,-558.3 263.48,-549.55"/>
<polygon fill="grey" stroke="grey" stroke-width="2" points="266.77,-548.34 260.11,-540.1 260.18,-550.7 266.77,-548.34"/>
</g>
<!-- 4 -->
<g id="node5" class="node">
<title>4</title>
<path fill="none" stroke="#56b9d8" stroke-width="2" d="M275.5,-468C275.5,-468 240.5,-468 240.5,-468 234.5,-468 228.5,-462 228.5,-456 228.5,-456 228.5,-444 228.5,-444 228.5,-438 234.5,-432 240.5,-432 240.5,-432 275.5,-432 275.5,-432 281.5,-432 287.5,-438 287.5,-444 287.5,-444 287.5,-456 287.5,-456 287.5,-462 281.5,-468 275.5,-468"/>
<text text-anchor="middle" x="258" y="-447.5" font-family="sans" font-size="10.00">multifasta</text>
</g>
<!-- 4&#45;&gt;0 -->
<g id="edge4" class="edge">
<title>4&#45;&gt;0</title>
<path fill="none" stroke="grey" stroke-width="2" d="M262.45,-431.65C268.88,-405.02 280,-352.4 280,-307 280,-307 280,-307 280,-161 280,-117.91 257.4,-72.26 240.92,-44.7"/>
<polygon fill="grey" stroke="grey" stroke-width="2" points="243.83,-42.75 235.6,-36.07 237.87,-46.42 243.83,-42.75"/>
</g>
<!-- 12 -->
<g id="node13" class="node">
<title>12</title>
<path fill="none" stroke="#56d87b" stroke-width="2" d="M240,-396C240,-396 210,-396 210,-396 204,-396 198,-390 198,-384 198,-384 198,-372 198,-372 198,-366 204,-360 210,-360 210,-360 240,-360 240,-360 246,-360 252,-366 252,-372 252,-372 252,-384 252,-384 252,-390 246,-396 240,-396"/>
<text text-anchor="middle" x="225" y="-375.5" font-family="sans" font-size="10.00">align</text>
</g>
<!-- 4&#45;&gt;12 -->
<g id="edge21" class="edge">
<title>4&#45;&gt;12</title>
<path fill="none" stroke="grey" stroke-width="2" d="M249.84,-431.7C246.09,-423.73 241.55,-414.1 237.38,-405.26"/>
<polygon fill="grey" stroke="grey" stroke-width="2" points="240.49,-403.66 233.06,-396.1 234.16,-406.64 240.49,-403.66"/>
</g>
<!-- 5 -->
<g id="node6" class="node">
<title>5</title>
<path fill="none" stroke="#b6d856" stroke-width="2" d="M114.5,-324C114.5,-324 79.5,-324 79.5,-324 73.5,-324 67.5,-318 67.5,-312 67.5,-312 67.5,-300 67.5,-300 67.5,-294 73.5,-288 79.5,-288 79.5,-288 114.5,-288 114.5,-288 120.5,-288 126.5,-294 126.5,-300 126.5,-300 126.5,-312 126.5,-312 126.5,-318 120.5,-324 114.5,-324"/>
<text text-anchor="middle" x="97" y="-303.5" font-family="sans" font-size="10.00">mutations</text>
</g>
<!-- 5&#45;&gt;1 -->
<g id="edge5" class="edge">
<title>5&#45;&gt;1</title>
<path fill="none" stroke="grey" stroke-width="2" d="M79.7,-287.7C71.14,-279.14 60.66,-268.66 51.3,-259.3"/>
<polygon fill="grey" stroke="grey" stroke-width="2" points="53.65,-256.7 44.1,-252.1 48.7,-261.65 53.65,-256.7"/>
</g>
<!-- 8 -->
<g id="node9" class="node">
<title>8</title>
<path fill="none" stroke="#56d8b9" stroke-width="2" d="M114,-252C114,-252 84,-252 84,-252 78,-252 72,-246 72,-240 72,-240 72,-228 72,-228 72,-222 78,-216 84,-216 84,-216 114,-216 114,-216 120,-216 126,-222 126,-228 126,-228 126,-240 126,-240 126,-246 120,-252 114,-252"/>
<text text-anchor="middle" x="99" y="-231.5" font-family="sans" font-size="10.00">mask</text>
</g>
<!-- 5&#45;&gt;8 -->
<g id="edge17" class="edge">
<title>5&#45;&gt;8</title>
<path fill="none" stroke="grey" stroke-width="2" d="M97.49,-287.7C97.71,-279.98 97.98,-270.71 98.23,-262.11"/>
<polygon fill="grey" stroke="grey" stroke-width="2" points="101.72,-262.2 98.51,-252.1 94.73,-262 101.72,-262.2"/>
</g>
<!-- 6 -->
<g id="node7" class="node">
<title>6</title>
<path fill="none" stroke="#56d8d8" stroke-width="2" d="M148,-540C148,-540 78,-540 78,-540 72,-540 66,-534 66,-528 66,-528 66,-516 66,-516 66,-510 72,-504 78,-504 78,-504 148,-504 148,-504 154,-504 160,-510 160,-516 160,-516 160,-528 160,-528 160,-534 154,-540 148,-540"/>
<text text-anchor="middle" x="113" y="-519.5" font-family="sans" font-size="10.00">inspect_metadata</text>
</g>
<!-- 6&#45;&gt;1 -->
<g id="edge6" class="edge">
<title>6&#45;&gt;1</title>
<path fill="none" stroke="grey" stroke-width="2" d="M106.97,-503.88C103.38,-493.53 98.8,-480.05 95,-468 71.57,-393.75 46.54,-305.31 34.42,-261.84"/>
<polygon fill="grey" stroke="grey" stroke-width="2" points="37.75,-260.73 31.7,-252.03 31,-262.6 37.75,-260.73"/>
</g>
<!-- 6&#45;&gt;4 -->
<g id="edge12" class="edge">
<title>6&#45;&gt;4</title>
<path fill="none" stroke="grey" stroke-width="2" d="M148.47,-503.88C169.89,-493.53 197.21,-480.35 219.2,-469.73"/>
<polygon fill="grey" stroke="grey" stroke-width="2" points="220.79,-472.85 228.27,-465.35 217.74,-466.55 220.79,-472.85"/>
</g>
<!-- 6&#45;&gt;5 -->
<g id="edge14" class="edge">
<title>6&#45;&gt;5</title>
<path fill="none" stroke="grey" stroke-width="2" d="M109.1,-503.91C106.92,-493.58 104.36,-480.1 103,-468 97.78,-421.5 96.82,-367.03 96.78,-334.86"/>
<polygon fill="grey" stroke="grey" stroke-width="2" points="100.28,-334.46 96.8,-324.46 93.28,-334.45 100.28,-334.46"/>
</g>
<!-- 9 -->
<g id="node10" class="node">
<title>9</title>
<path fill="none" stroke="#56d89a" stroke-width="2" d="M198.5,-468C198.5,-468 123.5,-468 123.5,-468 117.5,-468 111.5,-462 111.5,-456 111.5,-456 111.5,-444 111.5,-444 111.5,-438 117.5,-432 123.5,-432 123.5,-432 198.5,-432 198.5,-432 204.5,-432 210.5,-438 210.5,-444 210.5,-444 210.5,-456 210.5,-456 210.5,-462 204.5,-468 198.5,-468"/>
<text text-anchor="middle" x="161" y="-447.5" font-family="sans" font-size="10.00">combine_metadata</text>
</g>
<!-- 6&#45;&gt;9 -->
<g id="edge19" class="edge">
<title>6&#45;&gt;9</title>
<path fill="none" stroke="grey" stroke-width="2" d="M124.87,-503.7C130.5,-495.47 137.35,-485.48 143.57,-476.42"/>
<polygon fill="grey" stroke="grey" stroke-width="2" points="146.5,-478.33 149.27,-468.1 140.73,-474.37 146.5,-478.33"/>
</g>
<!-- 7 -->
<g id="node8" class="node">
<title>7</title>
<path fill="none" stroke="#d87556" stroke-width="2" d="M130,-180C130,-180 100,-180 100,-180 94,-180 88,-174 88,-168 88,-168 88,-156 88,-156 88,-150 94,-144 100,-144 100,-144 130,-144 130,-144 136,-144 142,-150 142,-156 142,-156 142,-168 142,-168 142,-174 136,-180 130,-180"/>
<text text-anchor="middle" x="115" y="-159.5" font-family="sans" font-size="10.00">tree</text>
</g>
<!-- 7&#45;&gt;2 -->
<g id="edge7" class="edge">
<title>7&#45;&gt;2</title>
<path fill="none" stroke="grey" stroke-width="2" d="M121.67,-143.7C124.71,-135.81 128.38,-126.3 131.76,-117.55"/>
<polygon fill="grey" stroke="grey" stroke-width="2" points="135.07,-118.69 135.4,-108.1 128.54,-116.17 135.07,-118.69"/>
</g>
<!-- 8&#45;&gt;2 -->
<g id="edge8" class="edge">
<title>8&#45;&gt;2</title>
<path fill="none" stroke="grey" stroke-width="2" d="M88.86,-215.9C79.33,-197.45 68.04,-167.55 79,-144 84.96,-131.2 95.71,-120.38 106.65,-111.93"/>
<polygon fill="grey" stroke="grey" stroke-width="2" points="108.92,-114.61 114.99,-105.93 104.83,-108.93 108.92,-114.61"/>
</g>
<!-- 8&#45;&gt;7 -->
<g id="edge16" class="edge">
<title>8&#45;&gt;7</title>
<path fill="none" stroke="grey" stroke-width="2" d="M102.96,-215.7C104.72,-207.98 106.84,-198.71 108.8,-190.11"/>
<polygon fill="grey" stroke="grey" stroke-width="2" points="112.27,-190.63 111.09,-180.1 105.45,-189.07 112.27,-190.63"/>
</g>
<!-- 9&#45;&gt;2 -->
<g id="edge9" class="edge">
<title>9&#45;&gt;2</title>
<path fill="none" stroke="grey" stroke-width="2" d="M162.78,-431.97C165.4,-405.34 170,-352.21 170,-307 170,-307 170,-307 170,-233 170,-192.27 158.77,-146.19 150.54,-117.86"/>
<polygon fill="grey" stroke="grey" stroke-width="2" points="153.89,-116.85 147.67,-108.27 147.18,-118.86 153.89,-116.85"/>
</g>
<!-- 10&#45;&gt;4 -->
<g id="edge10" class="edge">
<title>10&#45;&gt;4</title>
<path fill="none" stroke="grey" stroke-width="2" d="M254.99,-503.7C255.43,-495.98 255.96,-486.71 256.45,-478.11"/>
<polygon fill="grey" stroke="grey" stroke-width="2" points="259.95,-478.29 257.02,-468.1 252.96,-477.89 259.95,-478.29"/>
</g>
<!-- 10&#45;&gt;9 -->
<g id="edge18" class="edge">
<title>10&#45;&gt;9</title>
<path fill="none" stroke="grey" stroke-width="2" d="M231.01,-503.7C219.19,-494.8 204.61,-483.82 191.82,-474.2"/>
<polygon fill="grey" stroke="grey" stroke-width="2" points="193.82,-471.32 183.72,-468.1 189.61,-476.91 193.82,-471.32"/>
</g>
<!-- 11 -->
<g id="node12" class="node">
<title>11</title>
<path fill="none" stroke="#d89556" stroke-width="2" d="M190,-612C190,-612 134,-612 134,-612 128,-612 122,-606 122,-600 122,-600 122,-588 122,-588 122,-582 128,-576 134,-576 134,-576 190,-576 190,-576 196,-576 202,-582 202,-588 202,-588 202,-600 202,-600 202,-606 196,-612 190,-612"/>
<text text-anchor="middle" x="162" y="-591.5" font-family="sans" font-size="10.00">filter_coverage</text>
</g>
<!-- 11&#45;&gt;4 -->
<g id="edge11" class="edge">
<title>11&#45;&gt;4</title>
<path fill="none" stroke="grey" stroke-width="2" d="M169.16,-575.79C177.26,-557.25 191.5,-527.27 208,-504 215.13,-493.94 224.08,-483.86 232.42,-475.23"/>
<polygon fill="grey" stroke="grey" stroke-width="2" points="234.98,-477.62 239.55,-468.06 230.02,-472.69 234.98,-477.62"/>
</g>
<!-- 11&#45;&gt;6 -->
<g id="edge15" class="edge">
<title>11&#45;&gt;6</title>
<path fill="none" stroke="grey" stroke-width="2" d="M149.89,-575.7C144.13,-567.47 137.14,-557.48 130.79,-548.42"/>
<polygon fill="grey" stroke="grey" stroke-width="2" points="133.58,-546.29 124.97,-540.1 127.84,-550.3 133.58,-546.29"/>
</g>
<!-- 12&#45;&gt;5 -->
<g id="edge13" class="edge">
<title>12&#45;&gt;5</title>
<path fill="none" stroke="grey" stroke-width="2" d="M197.85,-362.15C179.78,-352.27 155.76,-339.13 135.69,-328.16"/>
<polygon fill="grey" stroke="grey" stroke-width="2" points="137.24,-325.02 126.79,-323.29 133.88,-331.16 137.24,-325.02"/>
</g>
</g>
</svg>
