<?xml version="1.0" encoding="UTF-8" standalone="no"?>
<!DOCTYPE svg PUBLIC "-//W3C//DTD SVG 1.1//EN"
 "http://www.w3.org/Graphics/SVG/1.1/DTD/svg11.dtd">
<!-- Generated by graphviz version 2.44.1 (20200629.0846)
 -->
<!-- Title: snakemake_dag Pages: 1 -->
<svg width="241pt" height="548pt"
 viewBox="0.00 0.00 241.31 548.00" xmlns="http://www.w3.org/2000/svg" xmlns:xlink="http://www.w3.org/1999/xlink">
<g id="graph0" class="graph" transform="scale(1 1) rotate(0) translate(4 544)">
<title>snakemake_dag</title>
<polygon fill="white" stroke="transparent" points="-4,4 -4,-544 237.31,-544 237.31,4 -4,4"/>
<!-- 0 -->
<g id="node1" class="node">
<title>0</title>
<path fill="none" stroke="#56d8b9" stroke-width="2" d="M186.31,-36C186.31,-36 148.31,-36 148.31,-36 142.31,-36 136.31,-30 136.31,-24 136.31,-24 136.31,-12 136.31,-12 136.31,-6 142.31,0 148.31,0 148.31,0 186.31,0 186.31,0 192.31,0 198.31,-6 198.31,-12 198.31,-12 198.31,-24 198.31,-24 198.31,-30 192.31,-36 186.31,-36"/>
<text text-anchor="middle" x="167.31" y="-15.5" font-family="sans" font-size="10.00">assurance</text>
</g>
<!-- 1 -->
<g id="node2" class="node">
<title>1</title>
<path fill="none" stroke="#d87d56" stroke-width="2" d="M113.31,-468C113.31,-468 43.31,-468 43.31,-468 37.31,-468 31.31,-462 31.31,-456 31.31,-456 31.31,-444 31.31,-444 31.31,-438 37.31,-432 43.31,-432 43.31,-432 113.31,-432 113.31,-432 119.31,-432 125.31,-438 125.31,-444 125.31,-444 125.31,-456 125.31,-456 125.31,-462 119.31,-468 113.31,-468"/>
<text text-anchor="middle" x="78.31" y="-447.5" font-family="sans" font-size="10.00">inspect_metadata</text>
</g>
<!-- 1&#45;&gt;0 -->
<g id="edge1" class="edge">
<title>1&#45;&gt;0</title>
<path fill="none" stroke="grey" stroke-width="2" d="M52.76,-431.89C40.85,-422.63 27.52,-410.18 19.31,-396 -0.94,-360.99 0.31,-347.45 0.31,-307 0.31,-307 0.31,-307 0.31,-161 0.31,-94.82 77.38,-53.02 126.81,-33.02"/>
<polygon fill="grey" stroke="grey" stroke-width="2" points="128.26,-36.22 136.29,-29.31 125.71,-29.7 128.26,-36.22"/>
</g>
<!-- 4 -->
<g id="node5" class="node">
<title>4</title>
<path fill="none" stroke="#d8a456" stroke-width="2" d="M192.81,-396C192.81,-396 157.81,-396 157.81,-396 151.81,-396 145.81,-390 145.81,-384 145.81,-384 145.81,-372 145.81,-372 145.81,-366 151.81,-360 157.81,-360 157.81,-360 192.81,-360 192.81,-360 198.81,-360 204.81,-366 204.81,-372 204.81,-372 204.81,-384 204.81,-384 204.81,-390 198.81,-396 192.81,-396"/>
<text text-anchor="middle" x="175.31" y="-375.5" font-family="sans" font-size="10.00">multifasta</text>
</g>
<!-- 1&#45;&gt;4 -->
<g id="edge11" class="edge">
<title>1&#45;&gt;4</title>
<path fill="none" stroke="grey" stroke-width="2" d="M102.29,-431.7C114.63,-422.8 129.83,-411.82 143.17,-402.2"/>
<polygon fill="grey" stroke="grey" stroke-width="2" points="145.55,-404.79 151.61,-396.1 141.46,-399.12 145.55,-404.79"/>
</g>
<!-- 8 -->
<g id="node9" class="node">
<title>8</title>
<path fill="none" stroke="#567bd8" stroke-width="2" d="M115.81,-396C115.81,-396 40.81,-396 40.81,-396 34.81,-396 28.81,-390 28.81,-384 28.81,-384 28.81,-372 28.81,-372 28.81,-366 34.81,-360 40.81,-360 40.81,-360 115.81,-360 115.81,-360 121.81,-360 127.81,-366 127.81,-372 127.81,-372 127.81,-384 127.81,-384 127.81,-390 121.81,-396 115.81,-396"/>
<text text-anchor="middle" x="78.31" y="-375.5" font-family="sans" font-size="10.00">combine_metadata</text>
</g>
<!-- 1&#45;&gt;8 -->
<g id="edge15" class="edge">
<title>1&#45;&gt;8</title>
<path fill="none" stroke="grey" stroke-width="2" d="M78.31,-431.7C78.31,-423.98 78.31,-414.71 78.31,-406.11"/>
<polygon fill="grey" stroke="grey" stroke-width="2" points="81.81,-406.1 78.31,-396.1 74.81,-406.1 81.81,-406.1"/>
</g>
<!-- 2 -->
<g id="node3" class="node">
<title>2</title>
<path fill="none" stroke="#56d0d8" stroke-width="2" d="M136.31,-108C136.31,-108 106.31,-108 106.31,-108 100.31,-108 94.31,-102 94.31,-96 94.31,-96 94.31,-84 94.31,-84 94.31,-78 100.31,-72 106.31,-72 106.31,-72 136.31,-72 136.31,-72 142.31,-72 148.31,-78 148.31,-84 148.31,-84 148.31,-96 148.31,-96 148.31,-102 142.31,-108 136.31,-108"/>
<text text-anchor="middle" x="121.31" y="-87.5" font-family="sans" font-size="10.00">root2tip</text>
</g>
<!-- 2&#45;&gt;0 -->
<g id="edge2" class="edge">
<title>2&#45;&gt;0</title>
<path fill="none" stroke="grey" stroke-width="2" d="M132.69,-71.7C138.03,-63.56 144.52,-53.69 150.43,-44.7"/>
<polygon fill="grey" stroke="grey" stroke-width="2" points="153.51,-46.38 156.07,-36.1 147.66,-42.54 153.51,-46.38"/>
</g>
<!-- 3 -->
<g id="node4" class="node">
<title>3</title>
<path fill="none" stroke="#56d86b" stroke-width="2" d="M185.31,-468C185.31,-468 155.31,-468 155.31,-468 149.31,-468 143.31,-462 143.31,-456 143.31,-456 143.31,-444 143.31,-444 143.31,-438 149.31,-432 155.31,-432 155.31,-432 185.31,-432 185.31,-432 191.31,-432 197.31,-438 197.31,-444 197.31,-444 197.31,-456 197.31,-456 197.31,-462 191.31,-468 185.31,-468"/>
<text text-anchor="middle" x="170.31" y="-447.5" font-family="sans" font-size="10.00">lineages</text>
</g>
<!-- 3&#45;&gt;0 -->
<g id="edge3" class="edge">
<title>3&#45;&gt;0</title>
<path fill="none" stroke="grey" stroke-width="2" d="M187.71,-431.8C196.62,-422.07 206.91,-409.22 213.31,-396 231,-359.52 233.31,-347.54 233.31,-307 233.31,-307 233.31,-307 233.31,-161 233.31,-116.84 206.75,-71.56 187.32,-44.35"/>
<polygon fill="grey" stroke="grey" stroke-width="2" points="190.06,-42.16 181.31,-36.18 184.42,-46.31 190.06,-42.16"/>
</g>
<!-- 3&#45;&gt;4 -->
<g id="edge9" class="edge">
<title>3&#45;&gt;4</title>
<path fill="none" stroke="grey" stroke-width="2" d="M171.55,-431.7C172.1,-423.98 172.76,-414.71 173.38,-406.11"/>
<polygon fill="grey" stroke="grey" stroke-width="2" points="176.87,-406.33 174.09,-396.1 169.89,-405.83 176.87,-406.33"/>
</g>
<!-- 3&#45;&gt;8 -->
<g id="edge14" class="edge">
<title>3&#45;&gt;8</title>
<path fill="none" stroke="grey" stroke-width="2" d="M147.57,-431.7C135.88,-422.8 121.45,-411.82 108.8,-402.2"/>
<polygon fill="grey" stroke="grey" stroke-width="2" points="110.87,-399.37 100.79,-396.1 106.63,-404.94 110.87,-399.37"/>
</g>
<!-- 4&#45;&gt;0 -->
<g id="edge4" class="edge">
<title>4&#45;&gt;0</title>
<path fill="none" stroke="grey" stroke-width="2" d="M179.36,-359.62C185.21,-332.97 195.31,-280.31 195.31,-235 195.31,-235 195.31,-235 195.31,-161 195.31,-120.27 184.09,-74.19 175.85,-45.86"/>
<polygon fill="grey" stroke="grey" stroke-width="2" points="179.2,-44.85 172.98,-36.27 172.5,-46.86 179.2,-44.85"/>
</g>
<!-- 7 -->
<g id="node8" class="node">
<title>7</title>
<path fill="none" stroke="#b6d856" stroke-width="2" d="M155.31,-324C155.31,-324 125.31,-324 125.31,-324 119.31,-324 113.31,-318 113.31,-312 113.31,-312 113.31,-300 113.31,-300 113.31,-294 119.31,-288 125.31,-288 125.31,-288 155.31,-288 155.31,-288 161.31,-288 167.31,-294 167.31,-300 167.31,-300 167.31,-312 167.31,-312 167.31,-318 161.31,-324 155.31,-324"/>
<text text-anchor="middle" x="140.31" y="-303.5" font-family="sans" font-size="10.00">align</text>
</g>
<!-- 4&#45;&gt;7 -->
<g id="edge13" class="edge">
<title>4&#45;&gt;7</title>
<path fill="none" stroke="grey" stroke-width="2" d="M166.66,-359.7C162.68,-351.73 157.86,-342.1 153.45,-333.26"/>
<polygon fill="grey" stroke="grey" stroke-width="2" points="156.47,-331.48 148.87,-324.1 150.21,-334.61 156.47,-331.48"/>
</g>
<!-- 5 -->
<g id="node6" class="node">
<title>5</title>
<path fill="none" stroke="#d8cb56" stroke-width="2" d="M179.31,-540C179.31,-540 123.31,-540 123.31,-540 117.31,-540 111.31,-534 111.31,-528 111.31,-528 111.31,-516 111.31,-516 111.31,-510 117.31,-504 123.31,-504 123.31,-504 179.31,-504 179.31,-504 185.31,-504 191.31,-510 191.31,-516 191.31,-516 191.31,-528 191.31,-528 191.31,-534 185.31,-540 179.31,-540"/>
<text text-anchor="middle" x="151.31" y="-519.5" font-family="sans" font-size="10.00">filter_coverage</text>
</g>
<!-- 5&#45;&gt;1 -->
<g id="edge5" class="edge">
<title>5&#45;&gt;1</title>
<path fill="none" stroke="grey" stroke-width="2" d="M133.27,-503.7C124.25,-495.05 113.2,-484.45 103.37,-475.03"/>
<polygon fill="grey" stroke="grey" stroke-width="2" points="105.79,-472.5 96.15,-468.1 100.95,-477.55 105.79,-472.5"/>
</g>
<!-- 5&#45;&gt;4 -->
<g id="edge10" class="edge">
<title>5&#45;&gt;4</title>
<path fill="none" stroke="grey" stroke-width="2" d="M176.69,-503.95C188.03,-494.79 200.19,-482.4 206.31,-468 215.15,-447.23 205.46,-423 194.64,-405.07"/>
<polygon fill="grey" stroke="grey" stroke-width="2" points="197.35,-402.81 188.98,-396.32 191.48,-406.62 197.35,-402.81"/>
</g>
<!-- 6 -->
<g id="node7" class="node">
<title>6</title>
<path fill="none" stroke="#8fd856" stroke-width="2" d="M117.31,-180C117.31,-180 87.31,-180 87.31,-180 81.31,-180 75.31,-174 75.31,-168 75.31,-168 75.31,-156 75.31,-156 75.31,-150 81.31,-144 87.31,-144 87.31,-144 117.31,-144 117.31,-144 123.31,-144 129.31,-150 129.31,-156 129.31,-156 129.31,-168 129.31,-168 129.31,-174 123.31,-180 117.31,-180"/>
<text text-anchor="middle" x="102.31" y="-159.5" font-family="sans" font-size="10.00">tree</text>
</g>
<!-- 6&#45;&gt;2 -->
<g id="edge6" class="edge">
<title>6&#45;&gt;2</title>
<path fill="none" stroke="grey" stroke-width="2" d="M107.01,-143.7C109.13,-135.9 111.68,-126.51 114.03,-117.83"/>
<polygon fill="grey" stroke="grey" stroke-width="2" points="117.43,-118.67 116.67,-108.1 110.67,-116.84 117.43,-118.67"/>
</g>
<!-- 7&#45;&gt;2 -->
<g id="edge7" class="edge">
<title>7&#45;&gt;2</title>
<path fill="none" stroke="grey" stroke-width="2" d="M141.75,-287.94C143.88,-258.38 146.76,-195.87 138.31,-144 136.9,-135.32 134.35,-126.12 131.64,-117.85"/>
<polygon fill="grey" stroke="grey" stroke-width="2" points="134.92,-116.64 128.32,-108.34 128.31,-118.94 134.92,-116.64"/>
</g>
<!-- 9 -->
<g id="node10" class="node">
<title>9</title>
<path fill="none" stroke="#56a9d8" stroke-width="2" d="M117.31,-252C117.31,-252 87.31,-252 87.31,-252 81.31,-252 75.31,-246 75.31,-240 75.31,-240 75.31,-228 75.31,-228 75.31,-222 81.31,-216 87.31,-216 87.31,-216 117.31,-216 117.31,-216 123.31,-216 129.31,-222 129.31,-228 129.31,-228 129.31,-240 129.31,-240 129.31,-246 123.31,-252 117.31,-252"/>
<text text-anchor="middle" x="102.31" y="-231.5" font-family="sans" font-size="10.00">mask</text>
</g>
<!-- 7&#45;&gt;9 -->
<g id="edge16" class="edge">
<title>7&#45;&gt;9</title>
<path fill="none" stroke="grey" stroke-width="2" d="M130.92,-287.7C126.55,-279.64 121.26,-269.89 116.42,-260.98"/>
<polygon fill="grey" stroke="grey" stroke-width="2" points="119.45,-259.22 111.6,-252.1 113.3,-262.56 119.45,-259.22"/>
</g>
<!-- 8&#45;&gt;2 -->
<g id="edge8" class="edge">
<title>8&#45;&gt;2</title>
<path fill="none" stroke="grey" stroke-width="2" d="M72.48,-359.73C60.03,-319.83 34.46,-218.93 66.31,-144 71.05,-132.86 79.4,-122.93 88.18,-114.76"/>
<polygon fill="grey" stroke="grey" stroke-width="2" points="90.67,-117.24 95.94,-108.05 86.08,-111.95 90.67,-117.24"/>
</g>
<!-- 9&#45;&gt;6 -->
<g id="edge12" class="edge">
<title>9&#45;&gt;6</title>
<path fill="none" stroke="grey" stroke-width="2" d="M102.31,-215.7C102.31,-207.98 102.31,-198.71 102.31,-190.11"/>
<polygon fill="grey" stroke="grey" stroke-width="2" points="105.81,-190.1 102.31,-180.1 98.81,-190.1 105.81,-190.1"/>
</g>
</g>
</svg>
