<?xml version="1.0" encoding="UTF-8" standalone="no"?>
<!DOCTYPE svg PUBLIC "-//W3C//DTD SVG 1.1//EN"
 "http://www.w3.org/Graphics/SVG/1.1/DTD/svg11.dtd">
<!-- Generated by graphviz version 2.40.1 (20161225.0304)
 -->
<!-- Title: snakemake_dag Pages: 1 -->
<svg width="335pt" height="620pt"
 viewBox="0.00 0.00 334.50 620.00" xmlns="http://www.w3.org/2000/svg" xmlns:xlink="http://www.w3.org/1999/xlink">
<g id="graph0" class="graph" transform="scale(1 1) rotate(0) translate(4 616)">
<title>snakemake_dag</title>
<polygon fill="#ffffff" stroke="transparent" points="-4,4 -4,-616 330.5,-616 330.5,4 -4,4"/>
<!-- 0 -->
<g id="node1" class="node">
<title>0</title>
<path fill="none" stroke="#d89556" stroke-width="2" d="M250,-36C250,-36 207,-36 207,-36 201,-36 195,-30 195,-24 195,-24 195,-12 195,-12 195,-6 201,0 207,0 207,0 250,0 250,0 256,0 262,-6 262,-12 262,-12 262,-24 262,-24 262,-30 256,-36 250,-36"/>
<text text-anchor="middle" x="228.5" y="-15.5" font-family="sans" font-size="10.00" fill="#000000">assurance</text>
</g>
<!-- 1 -->
<g id="node2" class="node">
<title>1</title>
<path fill="none" stroke="#59d856" stroke-width="2" d="M47,-252C47,-252 12,-252 12,-252 6,-252 0,-246 0,-240 0,-240 0,-228 0,-228 0,-222 6,-216 12,-216 12,-216 47,-216 47,-216 53,-216 59,-222 59,-228 59,-228 59,-240 59,-240 59,-246 53,-252 47,-252"/>
<text text-anchor="middle" x="29.5" y="-231.5" font-family="sans" font-size="10.00" fill="#000000">pangolin</text>
</g>
<!-- 1&#45;&gt;0 -->
<g id="edge1" class="edge">
<title>1&#45;&gt;0</title>
<path fill="none" stroke="#c0c0c0" stroke-width="2" d="M29.3007,-215.7208C29.8122,-196.7674 32.6791,-166.7769 44.5,-144 73.66,-87.8137 140.6286,-52.0004 185.2155,-33.4557"/>
<polygon fill="#c0c0c0" stroke="#c0c0c0" stroke-width="2" points="186.6809,-36.6386 194.645,-29.6512 184.0617,-30.1471 186.6809,-36.6386"/>
</g>
<!-- 2 -->
<g id="node3" class="node">
<title>2</title>
<path fill="none" stroke="#d8b456" stroke-width="2" stroke-dasharray="5,2" d="M313.5,-612C313.5,-612 257.5,-612 257.5,-612 251.5,-612 245.5,-606 245.5,-600 245.5,-600 245.5,-588 245.5,-588 245.5,-582 251.5,-576 257.5,-576 257.5,-576 313.5,-576 313.5,-576 319.5,-576 325.5,-582 325.5,-588 325.5,-588 325.5,-600 325.5,-600 325.5,-606 319.5,-612 313.5,-612"/>
<text text-anchor="middle" x="285.5" y="-591.5" font-family="sans" font-size="10.00" fill="#000000">lineages_rep</text>
</g>
<!-- 2&#45;&gt;0 -->
<g id="edge2" class="edge">
<title>2&#45;&gt;0</title>
<path fill="none" stroke="#c0c0c0" stroke-width="2" d="M294.195,-575.8324C306.2302,-548.9721 326.5,-496.7885 326.5,-450 326.5,-450 326.5,-450 326.5,-162 326.5,-113.6274 288.2374,-69.4833 259.5288,-43.1696"/>
<polygon fill="#c0c0c0" stroke="#c0c0c0" stroke-width="2" points="261.5239,-40.2601 251.7246,-36.2319 256.8731,-45.4918 261.5239,-40.2601"/>
</g>
<!-- 7 -->
<g id="node8" class="node">
<title>7</title>
<path fill="none" stroke="#56d8b9" stroke-width="2" d="M286.5,-540C286.5,-540 228.5,-540 228.5,-540 222.5,-540 216.5,-534 216.5,-528 216.5,-528 216.5,-516 216.5,-516 216.5,-510 222.5,-504 228.5,-504 228.5,-504 286.5,-504 286.5,-504 292.5,-504 298.5,-510 298.5,-516 298.5,-516 298.5,-528 298.5,-528 298.5,-534 292.5,-540 286.5,-540"/>
<text text-anchor="middle" x="257.5" y="-519.5" font-family="sans" font-size="10.00" fill="#000000">base_dataset</text>
</g>
<!-- 2&#45;&gt;7 -->
<g id="edge16" class="edge">
<title>2&#45;&gt;7</title>
<path fill="none" stroke="#c0c0c0" stroke-width="2" d="M278.4344,-575.8314C275.374,-567.9617 271.7221,-558.5712 268.3318,-549.8533"/>
<polygon fill="#c0c0c0" stroke="#c0c0c0" stroke-width="2" points="271.5473,-548.4647 264.6607,-540.4133 265.0232,-551.0019 271.5473,-548.4647"/>
</g>
<!-- 3 -->
<g id="node4" class="node">
<title>3</title>
<path fill="none" stroke="#b6d856" stroke-width="2" d="M284.5,-468C284.5,-468 242.5,-468 242.5,-468 236.5,-468 230.5,-462 230.5,-456 230.5,-456 230.5,-444 230.5,-444 230.5,-438 236.5,-432 242.5,-432 242.5,-432 284.5,-432 284.5,-432 290.5,-432 296.5,-438 296.5,-444 296.5,-444 296.5,-456 296.5,-456 296.5,-462 290.5,-468 284.5,-468"/>
<text text-anchor="middle" x="263.5" y="-447.5" font-family="sans" font-size="10.00" fill="#000000">multifasta</text>
</g>
<!-- 3&#45;&gt;0 -->
<g id="edge3" class="edge">
<title>3&#45;&gt;0</title>
<path fill="none" stroke="#c0c0c0" stroke-width="2" d="M267.644,-431.9265C273.5021,-404.7528 283.5,-351.6844 283.5,-306 283.5,-306 283.5,-306 283.5,-162 283.5,-118.9621 261.7948,-73.1692 245.6549,-45.0671"/>
<polygon fill="#c0c0c0" stroke="#c0c0c0" stroke-width="2" points="248.539,-43.0682 240.4342,-36.2446 242.5148,-46.6331 248.539,-43.0682"/>
</g>
<!-- 12 -->
<g id="node13" class="node">
<title>12</title>
<path fill="none" stroke="#d87556" stroke-width="2" d="M243.5,-396C243.5,-396 213.5,-396 213.5,-396 207.5,-396 201.5,-390 201.5,-384 201.5,-384 201.5,-372 201.5,-372 201.5,-366 207.5,-360 213.5,-360 213.5,-360 243.5,-360 243.5,-360 249.5,-360 255.5,-366 255.5,-372 255.5,-372 255.5,-384 255.5,-384 255.5,-390 249.5,-396 243.5,-396"/>
<text text-anchor="middle" x="228.5" y="-375.5" font-family="sans" font-size="10.00" fill="#000000">align</text>
</g>
<!-- 3&#45;&gt;12 -->
<g id="edge21" class="edge">
<title>3&#45;&gt;12</title>
<path fill="none" stroke="#c0c0c0" stroke-width="2" d="M254.668,-431.8314C250.8014,-423.8771 246.1794,-414.369 241.9032,-405.5723"/>
<polygon fill="#c0c0c0" stroke="#c0c0c0" stroke-width="2" points="244.9707,-403.8768 237.4509,-396.4133 238.6751,-406.9371 244.9707,-403.8768"/>
</g>
<!-- 4 -->
<g id="node5" class="node">
<title>4</title>
<path fill="none" stroke="#78d856" stroke-width="2" d="M170.5,-108C170.5,-108 138.5,-108 138.5,-108 132.5,-108 126.5,-102 126.5,-96 126.5,-96 126.5,-84 126.5,-84 126.5,-78 132.5,-72 138.5,-72 138.5,-72 170.5,-72 170.5,-72 176.5,-72 182.5,-78 182.5,-84 182.5,-84 182.5,-96 182.5,-96 182.5,-102 176.5,-108 170.5,-108"/>
<text text-anchor="middle" x="154.5" y="-87.5" font-family="sans" font-size="10.00" fill="#000000">root2tip</text>
</g>
<!-- 4&#45;&gt;0 -->
<g id="edge4" class="edge">
<title>4&#45;&gt;0</title>
<path fill="none" stroke="#c0c0c0" stroke-width="2" d="M173.1733,-71.8314C182.0249,-63.219 192.7486,-52.7851 202.3895,-43.4048"/>
<polygon fill="#c0c0c0" stroke="#c0c0c0" stroke-width="2" points="205.1061,-45.645 209.8326,-36.1628 200.2246,-40.6279 205.1061,-45.645"/>
</g>
<!-- 5 -->
<g id="node6" class="node">
<title>5</title>
<path fill="none" stroke="#56b9d8" stroke-width="2" d="M123,-324C123,-324 82,-324 82,-324 76,-324 70,-318 70,-312 70,-312 70,-300 70,-300 70,-294 76,-288 82,-288 82,-288 123,-288 123,-288 129,-288 135,-294 135,-300 135,-300 135,-312 135,-312 135,-318 129,-324 123,-324"/>
<text text-anchor="middle" x="102.5" y="-303.5" font-family="sans" font-size="10.00" fill="#000000">mutations</text>
</g>
<!-- 5&#45;&gt;1 -->
<g id="edge5" class="edge">
<title>5&#45;&gt;1</title>
<path fill="none" stroke="#c0c0c0" stroke-width="2" d="M84.079,-287.8314C75.3471,-279.219 64.7683,-268.7851 55.2577,-259.4048"/>
<polygon fill="#c0c0c0" stroke="#c0c0c0" stroke-width="2" points="57.4925,-256.6931 47.9151,-252.1628 52.577,-261.6769 57.4925,-256.6931"/>
</g>
<!-- 9 -->
<g id="node10" class="node">
<title>9</title>
<path fill="none" stroke="#d6d856" stroke-width="2" d="M119.5,-252C119.5,-252 89.5,-252 89.5,-252 83.5,-252 77.5,-246 77.5,-240 77.5,-240 77.5,-228 77.5,-228 77.5,-222 83.5,-216 89.5,-216 89.5,-216 119.5,-216 119.5,-216 125.5,-216 131.5,-222 131.5,-228 131.5,-228 131.5,-240 131.5,-240 131.5,-246 125.5,-252 119.5,-252"/>
<text text-anchor="middle" x="104.5" y="-231.5" font-family="sans" font-size="10.00" fill="#000000">mask</text>
</g>
<!-- 5&#45;&gt;9 -->
<g id="edge17" class="edge">
<title>5&#45;&gt;9</title>
<path fill="none" stroke="#c0c0c0" stroke-width="2" d="M103.0047,-287.8314C103.2186,-280.131 103.4729,-270.9743 103.7106,-262.4166"/>
<polygon fill="#c0c0c0" stroke="#c0c0c0" stroke-width="2" points="107.2094,-262.5066 103.9885,-252.4133 100.2121,-262.3122 107.2094,-262.5066"/>
</g>
<!-- 6 -->
<g id="node7" class="node">
<title>6</title>
<path fill="none" stroke="#569ad8" stroke-width="2" stroke-dasharray="5,2" d="M148.5,-540C148.5,-540 68.5,-540 68.5,-540 62.5,-540 56.5,-534 56.5,-528 56.5,-528 56.5,-516 56.5,-516 56.5,-510 62.5,-504 68.5,-504 68.5,-504 148.5,-504 148.5,-504 154.5,-504 160.5,-510 160.5,-516 160.5,-516 160.5,-528 160.5,-528 160.5,-534 154.5,-540 148.5,-540"/>
<text text-anchor="middle" x="108.5" y="-519.5" font-family="sans" font-size="10.00" fill="#000000">inspect_metadata</text>
</g>
<!-- 6&#45;&gt;1 -->
<g id="edge6" class="edge">
<title>6&#45;&gt;1</title>
<path fill="none" stroke="#c0c0c0" stroke-width="2" d="M100.2797,-503.7558C95.8172,-493.4069 90.4264,-480.1359 86.5,-468 62.8971,-395.0467 43.8609,-306.539 34.9601,-262.1952"/>
<polygon fill="#c0c0c0" stroke="#c0c0c0" stroke-width="2" points="38.3484,-261.2878 32.9683,-252.1606 31.4823,-262.6507 38.3484,-261.2878"/>
</g>
<!-- 6&#45;&gt;3 -->
<g id="edge8" class="edge">
<title>6&#45;&gt;3</title>
<path fill="none" stroke="#c0c0c0" stroke-width="2" d="M147.613,-503.8314C170.0775,-493.3963 198.2988,-480.287 221.2671,-469.6178"/>
<polygon fill="#c0c0c0" stroke="#c0c0c0" stroke-width="2" points="222.838,-472.7474 230.4328,-465.3603 219.889,-466.3989 222.838,-472.7474"/>
</g>
<!-- 6&#45;&gt;5 -->
<g id="edge13" class="edge">
<title>6&#45;&gt;5</title>
<path fill="none" stroke="#c0c0c0" stroke-width="2" d="M102.1052,-503.7647C98.8154,-493.4187 95.1558,-480.1474 93.5,-468 87.1425,-421.3593 92.92,-366.5802 97.6987,-334.1618"/>
<polygon fill="#c0c0c0" stroke="#c0c0c0" stroke-width="2" points="101.19,-334.4869 99.262,-324.069 94.2725,-333.4153 101.19,-334.4869"/>
</g>
<!-- 11 -->
<g id="node12" class="node">
<title>11</title>
<path fill="none" stroke="#56d89a" stroke-width="2" d="M200.5,-468C200.5,-468 114.5,-468 114.5,-468 108.5,-468 102.5,-462 102.5,-456 102.5,-456 102.5,-444 102.5,-444 102.5,-438 108.5,-432 114.5,-432 114.5,-432 200.5,-432 200.5,-432 206.5,-432 212.5,-438 212.5,-444 212.5,-444 212.5,-456 212.5,-456 212.5,-462 206.5,-468 200.5,-468"/>
<text text-anchor="middle" x="157.5" y="-447.5" font-family="sans" font-size="10.00" fill="#000000">combine_metadata</text>
</g>
<!-- 6&#45;&gt;11 -->
<g id="edge20" class="edge">
<title>6&#45;&gt;11</title>
<path fill="none" stroke="#c0c0c0" stroke-width="2" d="M120.8648,-503.8314C126.4509,-495.6232 133.163,-485.7606 139.3072,-476.7323"/>
<polygon fill="#c0c0c0" stroke="#c0c0c0" stroke-width="2" points="142.236,-478.6496 144.9687,-468.4133 136.449,-474.7112 142.236,-478.6496"/>
</g>
<!-- 7&#45;&gt;3 -->
<g id="edge7" class="edge">
<title>7&#45;&gt;3</title>
<path fill="none" stroke="#c0c0c0" stroke-width="2" d="M259.0141,-503.8314C259.6558,-496.131 260.4188,-486.9743 261.1319,-478.4166"/>
<polygon fill="#c0c0c0" stroke="#c0c0c0" stroke-width="2" points="264.6229,-478.6694 261.9656,-468.4133 257.6471,-478.088 264.6229,-478.6694"/>
</g>
<!-- 7&#45;&gt;11 -->
<g id="edge19" class="edge">
<title>7&#45;&gt;11</title>
<path fill="none" stroke="#c0c0c0" stroke-width="2" d="M232.2658,-503.8314C219.712,-494.7927 204.3717,-483.7476 190.8609,-474.0198"/>
<polygon fill="#c0c0c0" stroke="#c0c0c0" stroke-width="2" points="192.8866,-471.1655 182.7261,-468.1628 188.7964,-476.8463 192.8866,-471.1655"/>
</g>
<!-- 8 -->
<g id="node9" class="node">
<title>8</title>
<path fill="none" stroke="#56d8d8" stroke-width="2" stroke-dasharray="5,2" d="M193,-612C193,-612 126,-612 126,-612 120,-612 114,-606 114,-600 114,-600 114,-588 114,-588 114,-582 120,-576 126,-576 126,-576 193,-576 193,-576 199,-576 205,-582 205,-588 205,-588 205,-600 205,-600 205,-606 199,-612 193,-612"/>
<text text-anchor="middle" x="159.5" y="-591.5" font-family="sans" font-size="10.00" fill="#000000">filter_coverage</text>
</g>
<!-- 8&#45;&gt;3 -->
<g id="edge9" class="edge">
<title>8&#45;&gt;3</title>
<path fill="none" stroke="#c0c0c0" stroke-width="2" d="M167.17,-575.768C175.5829,-556.8532 190.2126,-526.8937 207.5,-504 215.2573,-493.727 225.001,-483.6181 234.1765,-474.9753"/>
<polygon fill="#c0c0c0" stroke="#c0c0c0" stroke-width="2" points="236.6846,-477.4243 241.6943,-468.0887 231.9562,-472.2626 236.6846,-477.4243"/>
</g>
<!-- 8&#45;&gt;6 -->
<g id="edge15" class="edge">
<title>8&#45;&gt;6</title>
<path fill="none" stroke="#c0c0c0" stroke-width="2" d="M146.6305,-575.8314C140.8165,-567.6232 133.8304,-557.7606 127.4354,-548.7323"/>
<polygon fill="#c0c0c0" stroke="#c0c0c0" stroke-width="2" points="130.179,-546.5505 121.5427,-540.4133 124.4669,-550.5966 130.179,-546.5505"/>
</g>
<!-- 9&#45;&gt;4 -->
<g id="edge10" class="edge">
<title>9&#45;&gt;4</title>
<path fill="none" stroke="#c0c0c0" stroke-width="2" d="M110.8325,-215.7623C119.4359,-190.9846 134.8919,-146.4714 144.9188,-117.5939"/>
<polygon fill="#c0c0c0" stroke="#c0c0c0" stroke-width="2" points="148.2451,-118.6844 148.2189,-108.0896 141.6323,-116.3883 148.2451,-118.6844"/>
</g>
<!-- 10 -->
<g id="node11" class="node">
<title>10</title>
<path fill="none" stroke="#567bd8" stroke-width="2" d="M95.5,-180C95.5,-180 65.5,-180 65.5,-180 59.5,-180 53.5,-174 53.5,-168 53.5,-168 53.5,-156 53.5,-156 53.5,-150 59.5,-144 65.5,-144 65.5,-144 95.5,-144 95.5,-144 101.5,-144 107.5,-150 107.5,-156 107.5,-156 107.5,-168 107.5,-168 107.5,-174 101.5,-180 95.5,-180"/>
<text text-anchor="middle" x="80.5" y="-159.5" font-family="sans" font-size="10.00" fill="#000000">tree</text>
</g>
<!-- 9&#45;&gt;10 -->
<g id="edge18" class="edge">
<title>9&#45;&gt;10</title>
<path fill="none" stroke="#c0c0c0" stroke-width="2" d="M98.4438,-215.8314C95.8488,-208.0463 92.7576,-198.7729 89.8782,-190.1347"/>
<polygon fill="#c0c0c0" stroke="#c0c0c0" stroke-width="2" points="93.1205,-188.7933 86.6378,-180.4133 86.4797,-191.0069 93.1205,-188.7933"/>
</g>
<!-- 10&#45;&gt;4 -->
<g id="edge11" class="edge">
<title>10&#45;&gt;4</title>
<path fill="none" stroke="#c0c0c0" stroke-width="2" d="M99.1733,-143.8314C108.0249,-135.219 118.7486,-124.7851 128.3895,-115.4048"/>
<polygon fill="#c0c0c0" stroke="#c0c0c0" stroke-width="2" points="131.1061,-117.645 135.8326,-108.1628 126.2246,-112.6279 131.1061,-117.645"/>
</g>
<!-- 11&#45;&gt;4 -->
<g id="edge12" class="edge">
<title>11&#45;&gt;4</title>
<path fill="none" stroke="#c0c0c0" stroke-width="2" d="M160.8152,-431.8863C165.5017,-404.6615 173.5,-351.5285 173.5,-306 173.5,-306 173.5,-306 173.5,-234 173.5,-193.5282 166.032,-147.2037 160.46,-118.2725"/>
<polygon fill="#c0c0c0" stroke="#c0c0c0" stroke-width="2" points="163.8177,-117.2111 158.4368,-108.0844 156.9517,-118.5746 163.8177,-117.2111"/>
</g>
<!-- 12&#45;&gt;5 -->
<g id="edge14" class="edge">
<title>12&#45;&gt;5</title>
<path fill="none" stroke="#c0c0c0" stroke-width="2" d="M201.4698,-362.5542C184.4904,-352.8517 162.2688,-340.1536 143.1845,-329.2483"/>
<polygon fill="#c0c0c0" stroke="#c0c0c0" stroke-width="2" points="144.8057,-326.1436 134.3867,-324.221 141.3327,-332.2213 144.8057,-326.1436"/>
</g>
</g>
</svg>
